<svg width="24" height="24" viewBox="0 0 24 24" fill="none" xmlns="http://www.w3.org/2000/svg">
<g id="Frame" clip-path="url(#clip0_1532_53)">
<g id="Group">
<path id="Vector" fill-rule="evenodd" clip-rule="evenodd" d="M1.046 20.864C1.47296 19.7969 2.20991 18.8822 3.16175 18.2381C4.1136 17.5939 5.23666 17.2497 6.386 17.25H17.615C18.7643 17.25 19.8872 17.5944 20.8389 18.2387C21.7905 18.8831 22.5273 19.7979 22.954 20.865L23.148 21.35C23.2542 21.6155 23.2938 21.9031 23.2631 22.1874C23.2325 22.4718 23.1326 22.7443 22.9723 22.9811C22.8119 23.218 22.596 23.4119 22.3433 23.5459C22.0907 23.68 21.809 23.75 21.523 23.75H2.477C2.19099 23.75 1.90934 23.68 1.65668 23.5459C1.40403 23.4119 1.18808 23.218 1.02772 22.9811C0.867372 22.7443 0.767509 22.4718 0.736875 22.1874C0.70624 21.9031 0.745768 21.6155 0.851999 21.35L1.046 20.864ZM6.386 18.75C5.53639 18.7498 4.70623 19.0043 4.00267 19.4806C3.29911 19.9569 2.75446 20.6331 2.439 21.422L2.245 21.907C2.2298 21.9449 2.22413 21.986 2.22848 22.0266C2.23284 22.0673 2.24708 22.1062 2.26998 22.1401C2.29287 22.1739 2.32372 22.2016 2.35981 22.2208C2.3959 22.24 2.43614 22.25 2.477 22.25H21.523C21.5639 22.25 21.6041 22.24 21.6402 22.2208C21.6763 22.2016 21.7071 22.1739 21.73 22.1401C21.7529 22.1062 21.7672 22.0673 21.7715 22.0266C21.7759 21.986 21.7702 21.9449 21.755 21.907L21.561 21.422C21.2456 20.6333 20.7011 19.9572 19.9977 19.4809C19.2944 19.0046 18.4644 18.75 17.615 18.75H6.386ZM5.25 8C5.25 7.033 6.033 6.25 7 6.25H17C17.967 6.25 18.75 7.033 18.75 8V10.5C18.75 10.9641 18.5656 11.4092 18.2374 11.7374C17.9093 12.0656 17.4641 12.25 17 12.25H13C12.8012 12.2498 12.6105 12.1707 12.47 12.03L12 11.56L11.53 12.03C11.3895 12.1707 11.1988 12.2498 11 12.25H7C6.53587 12.25 6.09075 12.0656 5.76256 11.7374C5.43437 11.4092 5.25 10.9641 5.25 10.5V8ZM7 7.75C6.9337 7.75 6.87011 7.77634 6.82322 7.82322C6.77634 7.87011 6.75 7.9337 6.75 8V10.5C6.75 10.638 6.862 10.75 7 10.75H10.69L11.47 9.97C11.6106 9.82955 11.8012 9.75066 12 9.75066C12.1988 9.75066 12.3894 9.82955 12.53 9.97L13.31 10.75H17C17.0663 10.75 17.1299 10.7237 17.1768 10.6768C17.2237 10.6299 17.25 10.5663 17.25 10.5V8C17.25 7.9337 17.2237 7.87011 17.1768 7.82322C17.1299 7.77634 17.0663 7.75 17 7.75H7Z" fill="#AC81FE"/>
<path id="Vector_2" fill-rule="evenodd" clip-rule="evenodd" d="M11.241 2.46005C11.2711 2.65656 11.222 2.85701 11.1044 3.01734C10.9869 3.17766 10.8105 3.28475 10.614 3.31505C9.09097 3.55005 7.94397 4.75505 7.30397 6.25005H16.696C16.056 4.75505 14.909 3.55005 13.386 3.31505C13.2865 3.30253 13.1906 3.27021 13.1039 3.22C13.0171 3.16979 12.9413 3.1027 12.881 3.0227C12.8206 2.9427 12.7769 2.85141 12.7524 2.75423C12.7279 2.65704 12.7231 2.55594 12.7384 2.45688C12.7536 2.35782 12.7885 2.26282 12.8411 2.1775C12.8937 2.09217 12.9628 2.01825 13.0445 1.96009C13.1261 1.90194 13.2185 1.86074 13.3163 1.83891C13.4142 1.81709 13.5154 1.8151 13.614 1.83305C16.288 2.24505 17.882 4.61905 18.471 6.80505C18.5009 6.91627 18.5048 7.0329 18.4824 7.14589C18.46 7.25887 18.4119 7.36518 18.3418 7.45657C18.2717 7.54796 18.1815 7.62197 18.0782 7.67287C17.9748 7.72376 17.8612 7.75017 17.746 7.75005H6.25297C6.13787 7.75002 6.02432 7.7235 5.92111 7.67253C5.81791 7.62157 5.72782 7.54754 5.65782 7.45618C5.58782 7.36481 5.53978 7.25855 5.51744 7.14564C5.4951 7.03273 5.49904 6.91619 5.52897 6.80505C6.11797 4.61905 7.71197 2.24505 10.386 1.83305C10.5825 1.80289 10.7829 1.852 10.9433 1.96957C11.1036 2.08714 11.2107 2.26356 11.241 2.46005Z" fill="#AC81FE"/>
<path id="Vector_3" fill-rule="evenodd" clip-rule="evenodd" d="M12.0001 1.75C11.8012 1.75 11.6104 1.82902 11.4698 1.96967C11.3291 2.11032 11.2501 2.30109 11.2501 2.5C11.2501 2.69891 11.3291 2.88968 11.4698 3.03033C11.6104 3.17098 11.8012 3.25 12.0001 3.25C12.199 3.25 12.3898 3.17098 12.5304 3.03033C12.6711 2.88968 12.7501 2.69891 12.7501 2.5C12.7501 2.30109 12.6711 2.11032 12.5304 1.96967C12.3898 1.82902 12.199 1.75 12.0001 1.75ZM9.75008 2.5C9.75008 1.90326 9.98714 1.33097 10.4091 0.90901C10.8311 0.487053 11.4033 0.25 12.0001 0.25C12.5968 0.25 13.1691 0.487053 13.5911 0.90901C14.013 1.33097 14.2501 1.90326 14.2501 2.5C14.2501 3.09674 14.013 3.66903 13.5911 4.09099C13.1691 4.51295 12.5968 4.75 12.0001 4.75C11.4033 4.75 10.8311 4.51295 10.4091 4.09099C9.98714 3.66903 9.75008 3.09674 9.75008 2.5ZM6.70408 10.989C6.88576 10.9082 7.09211 10.9028 7.27776 10.974C7.46341 11.0453 7.61316 11.1874 7.69408 11.369C8.18208 12.46 8.82908 13.451 9.58108 14.158C10.3311 14.862 11.1471 15.252 12.0051 15.252C12.8621 15.252 13.6781 14.862 14.4281 14.158C15.1811 13.451 15.8281 12.46 16.3151 11.368C16.3962 11.1863 16.5462 11.0443 16.7321 10.9733C16.8241 10.9381 16.9222 10.9213 17.0207 10.924C17.1191 10.9267 17.2161 10.9488 17.3061 10.989C17.396 11.0292 17.4772 11.0867 17.5449 11.1582C17.6127 11.2298 17.6656 11.314 17.7008 11.406C17.736 11.498 17.7527 11.5961 17.75 11.6946C17.7473 11.7931 17.7253 11.89 17.6851 11.98C17.1411 13.198 16.3921 14.372 15.4551 15.251C14.5161 16.133 13.3501 16.752 12.0051 16.752C10.6591 16.752 9.49408 16.133 8.55508 15.252C7.61808 14.372 6.86908 13.198 6.32508 11.98C6.28487 11.89 6.26277 11.7931 6.26005 11.6946C6.25733 11.5961 6.27405 11.498 6.30925 11.406C6.34444 11.3139 6.39743 11.2297 6.46518 11.1582C6.53293 11.0867 6.61411 11.0292 6.70408 10.989ZM10.2501 18C10.2501 17.8011 10.3291 17.6103 10.4698 17.4697C10.6104 17.329 10.8012 17.25 11.0001 17.25H13.0001C13.199 17.25 13.3898 17.329 13.5304 17.4697C13.6711 17.6103 13.7501 17.8011 13.7501 18V23C13.7501 23.1989 13.6711 23.3897 13.5304 23.5303C13.3898 23.671 13.199 23.75 13.0001 23.75H11.0001C10.8012 23.75 10.6104 23.671 10.4698 23.5303C10.3291 23.3897 10.2501 23.1989 10.2501 23V18ZM11.7501 18.75V22.25H12.2501V18.75H11.7501Z" fill="#AC81FE"/>
<path id="Vector_4" fill-rule="evenodd" clip-rule="evenodd" d="M6.00011 10.25C6.19903 10.25 6.38979 10.329 6.53044 10.4697C6.6711 10.6103 6.75011 10.8011 6.75011 11V11.039L6.74811 11.132C6.74511 11.212 6.74111 11.326 6.73211 11.467C6.71511 11.75 6.68011 12.147 6.61211 12.607C6.48411 13.461 6.23411 14.577 5.73211 15.611C6.02211 15.621 6.44511 15.581 6.96011 15.491C7.62211 15.377 8.32411 15.201 8.86711 15.051C9.14874 14.9739 9.42911 14.8922 9.70811 14.806L9.75611 14.791L9.76711 14.787H9.77011C9.95741 14.7329 10.1584 14.7538 10.3306 14.8453C10.5027 14.9368 10.6325 15.0918 10.6923 15.2774C10.7521 15.463 10.7373 15.6645 10.651 15.8394C10.5648 16.0142 10.4138 16.1486 10.2301 16.214L10.2241 16.216L10.2091 16.221L10.1561 16.237C9.86084 16.3284 9.56414 16.4151 9.26611 16.497C8.70011 16.653 7.94611 16.843 7.21711 16.969C6.52511 17.089 5.72811 17.179 5.14311 17.047C4.85611 16.983 4.42111 16.821 4.20311 16.377C3.97911 15.92 4.12311 15.456 4.29511 15.128C4.76011 14.244 5.00411 13.218 5.12811 12.386C5.19523 11.9328 5.23596 11.476 5.25011 11.018V11M6.00011 10.25C5.8012 10.25 5.61044 10.329 5.46978 10.4697C5.32913 10.6103 5.25011 10.8011 5.25011 11L6.00011 10.25ZM5.41111 15.566C5.41111 15.566 5.41511 15.566 5.42111 15.57C5.4176 15.5692 5.41423 15.5678 5.41111 15.566ZM18.7501 11V11.017C18.7501 11.031 18.7501 11.055 18.7521 11.087C18.7712 11.5162 18.8179 11.9438 18.8921 12.367C19.0371 13.189 19.3211 14.206 19.8651 15.082C20.0551 15.389 20.2541 15.86 20.0431 16.345C19.8351 16.825 19.3691 16.987 19.0891 17.048C18.4991 17.178 17.6751 17.09 16.9521 16.97C16.2286 16.8446 15.511 16.6878 14.8011 16.5C14.4865 16.418 14.1732 16.3313 13.8611 16.24L13.8041 16.224L13.7891 16.22L13.7831 16.218C13.5927 16.1605 13.4329 16.0296 13.339 15.8543C13.245 15.6789 13.2246 15.4734 13.2821 15.283C13.3397 15.0926 13.4705 14.9328 13.6459 14.8389C13.8212 14.7449 14.0267 14.7245 14.2171 14.782L14.2211 14.783L14.2331 14.787L14.2841 14.802L14.4801 14.859C14.6501 14.907 14.8921 14.974 15.1781 15.049C15.7541 15.199 16.4981 15.375 17.1961 15.49C17.7061 15.575 18.1321 15.616 18.4361 15.613C17.8561 14.583 17.5641 13.477 17.4151 12.627C17.3287 12.1344 17.2746 11.6367 17.2531 11.137C17.2518 11.105 17.2508 11.073 17.2501 11.041V11C17.25 10.8011 17.3289 10.6103 17.4694 10.4695C17.61 10.3288 17.8007 10.2496 17.9996 10.2495C18.1985 10.2494 18.3893 10.3283 18.5301 10.4688C18.6708 10.6094 18.75 10.8001 18.7501 10.999V11ZM18.6411 15.972C18.6397 15.9688 18.6387 15.9655 18.6381 15.962L18.6411 15.972ZM18.8181 15.569C18.8219 15.5668 18.8259 15.5651 18.8301 15.564L18.8181 15.569Z" fill="#AC81FE"/>
</g>
</g>
<defs>
<clipPath id="clip0_1532_53">
<rect width="24" height="24" fill="white"/>
</clipPath>
</defs>
</svg>
