<svg width="24" height="24" viewBox="0 0 24 24" fill="none" xmlns="http://www.w3.org/2000/svg">
<g id="Frame" clip-path="url(#clip0_1532_63)">
<g id="Group">
<path id="Vector" fill-rule="evenodd" clip-rule="evenodd" d="M5.245 7.391C5.245 3.733 7.987 0.75 12 0.75C16.013 0.75 18.755 3.733 18.755 7.391C18.755 7.811 18.719 8.253 18.651 8.708C19.01 9.066 19.25 9.55 19.25 10.11C19.25 11.12 18.502 11.852 17.62 12.113C17.097 13.248 16.398 14.333 15.537 15.168C14.583 16.094 13.387 16.752 12 16.752C10.612 16.752 9.417 16.094 8.463 15.168C7.602 14.333 6.903 13.248 6.381 12.113C5.498 11.852 4.75 11.121 4.75 10.111C4.75 9.551 4.99 9.066 5.349 8.708C5.28201 8.27215 5.24725 7.83196 5.245 7.391ZM12 2.25C8.833 2.25 6.745 4.543 6.745 7.391C6.745 7.837 6.796 8.339 6.899 8.874C6.92772 9.02346 6.91029 9.17812 6.84903 9.31744C6.78776 9.45676 6.68556 9.57414 6.556 9.654C6.331 9.792 6.25 9.97 6.25 10.11C6.25 10.313 6.462 10.655 6.993 10.713C7.12563 10.7275 7.25198 10.7771 7.35904 10.8568C7.46609 10.9364 7.54996 11.0431 7.602 11.166C8.082 12.301 8.737 13.344 9.507 14.092C10.276 14.837 11.117 15.252 12 15.252C12.884 15.252 13.724 14.837 14.493 14.092C15.263 13.344 15.917 12.301 16.398 11.166C16.45 11.0431 16.5339 10.9364 16.641 10.8568C16.748 10.7771 16.8744 10.7275 17.007 10.713C17.537 10.655 17.75 10.313 17.75 10.11C17.75 9.97 17.67 9.792 17.444 9.654C17.3144 9.57414 17.2122 9.45676 17.151 9.31744C17.0897 9.17812 17.0723 9.02346 17.101 8.874C17.1984 8.38555 17.25 7.88905 17.255 7.391C17.255 4.543 15.167 2.25 12 2.25ZM1.046 20.864C1.47296 19.7969 2.20991 18.8822 3.16175 18.2381C4.1136 17.5939 5.23666 17.2497 6.386 17.25H17.615C18.7643 17.25 19.8872 17.5944 20.8389 18.2387C21.7905 18.8831 22.5273 19.7979 22.954 20.865L23.148 21.35C23.2542 21.6155 23.2938 21.9031 23.2631 22.1874C23.2325 22.4718 23.1326 22.7443 22.9723 22.9811C22.8119 23.218 22.596 23.4119 22.3433 23.5459C22.0907 23.68 21.809 23.75 21.523 23.75H2.477C2.19099 23.75 1.90934 23.68 1.65668 23.5459C1.40403 23.4119 1.18808 23.218 1.02772 22.9811C0.867372 22.7443 0.767509 22.4718 0.736875 22.1874C0.70624 21.9031 0.745768 21.6155 0.851999 21.35L1.046 20.864ZM6.386 18.75C5.53639 18.7498 4.70623 19.0043 4.00267 19.4806C3.29911 19.9569 2.75446 20.6331 2.439 21.422L2.245 21.907C2.2298 21.9449 2.22413 21.986 2.22848 22.0266C2.23284 22.0673 2.24708 22.1062 2.26998 22.1401C2.29287 22.1739 2.32372 22.2016 2.35981 22.2208C2.3959 22.24 2.43614 22.25 2.477 22.25H21.523C21.5639 22.25 21.6041 22.24 21.6402 22.2208C21.6763 22.2016 21.7071 22.1739 21.73 22.1401C21.7529 22.1062 21.7672 22.0673 21.7715 22.0266C21.7759 21.986 21.7702 21.9449 21.755 21.907L21.561 21.422C21.2456 20.6333 20.7011 19.9572 19.9977 19.4809C19.2944 19.0046 18.4644 18.75 17.615 18.75H6.386Z" fill="#F97832"/>
<path id="Vector_2" fill-rule="evenodd" clip-rule="evenodd" d="M8.347 17.6299C8.41248 17.5145 8.50743 17.4185 8.62216 17.3517C8.73688 17.285 8.86727 17.2498 9 17.25H15C15.1327 17.25 15.2631 17.2852 15.3777 17.352C15.4924 17.4189 15.5873 17.515 15.6527 17.6305C15.718 17.746 15.7516 17.8768 15.7499 18.0095C15.7482 18.1423 15.7113 18.2721 15.643 18.386L14.358 20.528C13.29 22.308 10.71 22.308 9.642 20.528L8.357 18.386C8.28872 18.2722 8.25182 18.1424 8.25006 18.0098C8.2483 17.8772 8.28175 17.7464 8.347 17.631V17.6299ZM10.325 18.75L10.928 19.756C11.039 19.9411 11.1961 20.0943 11.384 20.2007C11.5719 20.3071 11.7841 20.3631 12 20.3631C12.2159 20.3631 12.4281 20.3071 12.616 20.2007C12.8039 20.0943 12.961 19.9411 13.072 19.756L13.675 18.75H10.325ZM7.47 5.96995C7.61063 5.8295 7.80125 5.75061 8 5.75061C8.19875 5.75061 8.38937 5.8295 8.53 5.96995L8.945 6.38395C9.179 6.61795 9.497 6.74995 9.828 6.74995H10.172C10.503 6.74995 10.821 6.61795 11.055 6.38395L11.47 5.96995C11.6106 5.8295 11.8012 5.75061 12 5.75061C12.1988 5.75061 12.3894 5.8295 12.53 5.96995L12.945 6.38395C13.179 6.61795 13.497 6.74995 13.828 6.74995H14.172C14.503 6.74995 14.821 6.61795 15.055 6.38395L15.47 5.96995C15.6106 5.8295 15.8012 5.75061 16 5.75061C16.1988 5.75061 16.3894 5.8295 16.53 5.96995L16.944 6.38395C17.179 6.61795 17.497 6.74995 17.828 6.74995H18C18.1989 6.74995 18.3897 6.82897 18.5303 6.96962C18.671 7.11027 18.75 7.30104 18.75 7.49995C18.75 7.69886 18.671 7.88963 18.5303 8.03028C18.3897 8.17093 18.1989 8.24995 18 8.24995H17.828C17.154 8.24982 16.5034 8.00214 16 7.55395C15.4966 8.00214 14.846 8.24982 14.172 8.24995H13.828C13.154 8.24982 12.5034 8.00214 12 7.55395C11.4966 8.00214 10.846 8.24982 10.172 8.24995H9.828C9.15396 8.24982 8.50345 8.00214 8 7.55395C7.49655 8.00214 6.84604 8.24982 6.172 8.24995H6C5.80109 8.24995 5.61032 8.17093 5.46967 8.03028C5.32902 7.88963 5.25 7.69886 5.25 7.49995C5.25 7.30104 5.32902 7.11027 5.46967 6.96962C5.61032 6.82897 5.80109 6.74995 6 6.74995H6.172C6.503 6.74995 6.821 6.61795 7.055 6.38395L7.47 5.96995Z" fill="#F97832"/>
</g>
</g>
<defs>
<clipPath id="clip0_1532_63">
<rect width="24" height="24" fill="white"/>
</clipPath>
</defs>
</svg>
