<svg width="24" height="24" viewBox="0 0 24 24" fill="none" xmlns="http://www.w3.org/2000/svg">
<g id="vuesax/linear/messages-2">
<g id="messages-2">
<path id="Vector" d="M18.4718 16.8295L18.8618 19.9895C18.9618 20.8195 18.0718 21.3995 17.3618 20.9695L13.1718 18.4795C12.7118 18.4795 12.2618 18.4495 11.8218 18.3895C12.5618 17.5195 13.0018 16.4195 13.0018 15.2295C13.0018 12.3895 10.5418 10.0895 7.5018 10.0895C6.3418 10.0895 5.27181 10.4195 4.38181 10.9995C4.35181 10.7495 4.3418 10.4995 4.3418 10.2395C4.3418 5.6895 8.2918 1.99951 13.1718 1.99951C18.0518 1.99951 22.0018 5.6895 22.0018 10.2395C22.0018 12.9395 20.6118 15.3295 18.4718 16.8295Z" stroke="#636363" stroke-width="1.5" stroke-linecap="round" stroke-linejoin="round"/>
<path id="Vector_2" d="M13.001 15.2298C13.001 16.4198 12.561 17.5198 11.821 18.3898C10.831 19.5898 9.26098 20.3598 7.50098 20.3598L4.89098 21.9098C4.45098 22.1798 3.89097 21.8098 3.95097 21.2998L4.20097 19.3298C2.86097 18.3998 2.00098 16.9098 2.00098 15.2298C2.00098 13.4698 2.94098 11.9198 4.38098 10.9998C5.27098 10.4198 6.34098 10.0898 7.50098 10.0898C10.541 10.0898 13.001 12.3898 13.001 15.2298Z" stroke="#636363" stroke-width="1.5" stroke-linecap="round" stroke-linejoin="round"/>
</g>
</g>
</svg>
